<?xml version="1.0" standalone="no"?>
<!DOCTYPE svg PUBLIC "-//W3C//DTD SVG 20010904//EN"
 "http://www.w3.org/TR/2001/REC-SVG-20010904/DTD/svg10.dtd">
<svg version="1.0" xmlns="http://www.w3.org/2000/svg"
 width="260.000000pt" height="260.000000pt" viewBox="0 0 260.000000 260.000000"
 preserveAspectRatio="xMidYMid meet">
<metadata>
Created by potrace 1.11, written by Peter Selinger 2001-2013
</metadata>
<g transform="translate(0.000000,260.000000) scale(0.100000,-0.100000)"
fill="#000000" stroke="none">
<path d="M1200 2569 c-216 -13 -428 -87 -624 -217 -104 -69 -271 -239 -344
-350 -135 -207 -212 -464 -212 -705 0 -102 27 -268 62 -377 63 -198 167 -368
313 -515 340 -341 839 -460 1300 -309 100 33 257 112 336 170 32 24 61 44 64
44 2 0 45 41 95 92 246 248 373 555 373 898 0 462 -240 878 -638 1105 -225
128 -455 180 -725 164z"/>
</g>
</svg>
