<?xml version="1.0" standalone="no"?>
<!DOCTYPE svg PUBLIC "-//W3C//DTD SVG 20010904//EN"
 "http://www.w3.org/TR/2001/REC-SVG-20010904/DTD/svg10.dtd">
<svg version="1.0" xmlns="http://www.w3.org/2000/svg"
 width="219.000000pt" height="219.000000pt" viewBox="0 0 219.000000 219.000000"
 preserveAspectRatio="xMidYMid meet">
<metadata>
Created by potrace 1.11, written by Peter Selinger 2001-2013
</metadata>
<g transform="translate(0.000000,219.000000) scale(0.100000,-0.100000)"
fill="#000000" stroke="none">
<path d="M717 2022 c-57 -35 -76 -122 -42 -186 24 -45 65 -65 127 -62 135 6
172 190 51 254 -31 17 -103 13 -136 -6z"/>
<path d="M376 1854 c-20 -21 -39 -48 -42 -61 -8 -31 2 -97 16 -101 5 -2 8 -8
5 -12 -3 -5 12 -21 35 -36 33 -22 48 -26 88 -22 79 8 142 81 126 148 -3 14 -6
30 -6 37 -1 7 -16 27 -35 45 -28 27 -42 32 -91 36 -57 4 -60 3 -96 -34z"/>
<path d="M709 1737 c-131 -76 -67 -274 81 -254 111 15 158 143 83 227 -14 16
-30 27 -34 24 -5 -3 -9 -1 -9 3 0 5 -8 9 -17 10 -10 1 -29 4 -43 6 -15 3 -40
-4 -61 -16z"/>
<path d="M1111 1709 c-91 -27 -133 -155 -72 -220 12 -13 27 -40 33 -61 12 -41
2 -79 -38 -133 -26 -36 -36 -66 -36 -111 0 -38 37 -104 58 -104 8 0 14 -4 14
-8 0 -9 5 -11 55 -15 62 -6 118 30 149 96 15 33 16 45 6 88 -7 27 -16 49 -20
49 -13 0 -40 66 -40 97 0 28 6 41 47 104 52 79 14 188 -76 218 -38 12 -35 12
-80 0z"/>
<path d="M154 1591 c-43 -22 -66 -56 -71 -105 -14 -129 130 -205 222 -116 41
40 57 87 44 132 -9 32 -69 97 -92 99 -59 6 -76 4 -103 -10z"/>
<path d="M502 1561 c-52 -14 -107 -96 -99 -147 12 -78 60 -119 138 -119 48 1
61 5 88 30 35 33 56 94 45 128 -5 12 -8 24 -9 27 0 3 -8 17 -18 31 -27 40 -96
64 -145 50z"/>
<path d="M1402 1448 c-38 -24 -73 -92 -68 -134 2 -16 4 -34 5 -39 0 -6 13 -23
27 -38 34 -37 42 -95 20 -141 -9 -19 -20 -36 -24 -38 -16 -7 -42 -72 -42 -104
0 -86 50 -138 134 -140 127 -5 199 138 121 240 -16 21 -25 49 -28 80 -3 42 1
53 29 89 18 22 30 45 28 49 -3 4 -1 8 5 8 6 0 8 21 6 51 -4 41 -11 58 -38 87
-36 40 -41 42 -102 47 -28 3 -50 -3 -73 -17z"/>
<path d="M742 1394 c-24 -12 -68 -54 -56 -54 3 0 1 -6 -5 -13 -6 -8 -12 -35
-12 -60 -2 -39 3 -53 34 -93 30 -38 37 -56 37 -91 0 -90 -98 -136 -167 -79
-68 56 -129 69 -183 37 -55 -33 -80 -72 -80 -126 0 -45 14 -72 54 -107 56 -50
137 -47 196 7 19 18 35 22 66 20 38 -2 104 -31 104 -46 0 -13 83 -30 113 -23
112 24 150 139 78 239 -46 64 -47 112 -3 173 31 43 33 52 29 99 -5 43 -12 59
-41 89 -20 21 -36 34 -36 29 0 -4 -6 -2 -14 4 -17 14 -82 12 -114 -5z"/>
<path d="M1096 997 c-47 -29 -65 -60 -66 -111 0 -55 34 -110 82 -132 34 -15
46 -16 86 -5 82 21 125 94 101 168 -29 92 -123 128 -203 80z"/>
<path d="M1659 887 c-68 -23 -109 -74 -109 -138 0 -36 13 -62 50 -105 27 -32
28 -36 18 -119 -9 -69 -104 -81 -180 -23 -35 27 -55 35 -94 37 -49 2 -73 -9
-121 -55 -20 -19 -34 -89 -23 -118 5 -14 7 -26 4 -26 -15 0 67 -71 87 -76 70
-15 99 -8 158 37 43 34 87 25 195 -38 12 -8 43 -11 76 -9 48 3 58 8 86 40 43
49 50 94 26 149 -11 23 -28 51 -39 62 -31 33 -30 99 3 146 51 74 47 151 -10
204 -19 17 -84 49 -90 44 -1 0 -17 -6 -37 -12z"/>
<path d="M1385 777 c-34 -19 -51 -48 -54 -92 -3 -72 57 -122 126 -103 53 14
70 54 61 140 -2 25 -30 48 -64 54 -16 2 -34 6 -40 8 -5 2 -19 -1 -29 -7z"/>
<path d="M650 723 c-62 -32 -95 -125 -65 -183 17 -34 70 -73 107 -81 38 -9 96
7 129 35 15 13 37 21 55 20 16 -1 37 -3 46 -3 10 -1 32 -14 50 -30 86 -75 195
-55 247 46 16 32 13 101 -5 133 -21 35 -73 60 -124 60 -37 0 -89 -16 -100 -32
-10 -13 -61 -28 -94 -28 -23 0 -45 11 -75 37 -52 44 -115 54 -171 26z"/>
<path d="M1985 471 c-54 -13 -94 -46 -100 -81 -1 -3 -5 -15 -9 -28 -5 -15 -1
-40 10 -71 52 -145 264 -103 264 53 0 78 -87 145 -165 127z"/>
</g>
</svg>
